<svg width="160" height="44" viewBox="85 0 159.748 44" fill="none" xmlns="http://www.w3.org/2000/svg">
  <g>
    <path d="M102.586 6.77151V0L96.7241 3.38081L102.586 6.77151Z" fill="#5DC4E9"/>
    <path d="M102.586 40.6192V33.8477L96.7241 37.2285L102.586 40.6192Z" fill="#009BC0"/>
    <path d="M108.448 37.2285V44L114.31 40.6192L108.448 37.2285Z" fill="#009BC0"/>
    <path d="M90.8621 33.8477V27.0762L85 30.457L90.8621 33.8477Z" fill="#5DC4E9"/>
    <path d="M90.8621 20.3047V13.543L85 16.9238L90.8621 20.3047Z" fill="#5DC4E9"/>
    <path d="M90.8621 13.543V20.3047L96.7241 16.9238L90.8621 13.543Z" fill="#009BC0"/>
    <path d="M102.586 20.3047V13.543L96.7241 16.9238L102.586 20.3047Z" fill="#5DC4E9"/>
    <path d="M102.586 20.3047V27.0762L108.448 23.6954L102.586 20.3047Z" fill="#009BC0"/>
    <path d="M102.586 13.543V20.3047L108.448 16.9238L102.586 13.543Z" fill="#009BC0"/>
    <path d="M120.172 23.6953V16.9238L114.31 20.3046L120.172 23.6953Z" fill="#009BC0"/>
    <path d="M96.7241 10.1523V16.9238L102.586 13.543L96.7241 10.1523Z" fill="#009BC0"/>
    <path d="M108.448 16.9238V10.1523L102.586 13.543L108.448 16.9238Z" fill="#5DC4E9"/>
    <path d="M108.448 10.1523V16.9238L114.31 13.543L108.448 10.1523Z" fill="#009BC0"/>
    <path d="M96.7241 23.6953V30.457L102.586 27.0762L96.7241 23.6953Z" fill="#009BC0"/>
    <path d="M102.586 33.8477V27.0762L96.7241 30.457L102.586 33.8477Z" fill="#5DC4E9"/>
    <path d="M108.448 30.457V23.6953L102.586 27.0762L108.448 30.457Z" fill="#5DC4E9"/>
    <path d="M108.448 23.6953V30.457L114.31 27.0762L108.448 23.6953Z" fill="#009BC0"/>
    <path d="M120.172 30.457V23.6953L114.31 27.0762L120.172 30.457Z" fill="#5DC4E9"/>
    <path d="M120.172 23.6953V30.457L126.034 27.0762L120.172 23.6953Z" fill="#009BC0"/>
    <path d="M114.31 20.3047V13.543L108.448 16.9238L114.31 20.3047Z" fill="#5DC4E9"/>

    <path fill-rule="evenodd" clip-rule="evenodd" d="M141.179 28.3612H136.533L135.93 30.4571H131.906L136.631 15.9649H141.07L145.795 30.4571H141.782L141.179 28.3612ZM140.289 25.1782L138.856 20.1662L137.423 25.1782H140.289Z" fill="#333333"/>
    <path fill-rule="evenodd" clip-rule="evenodd" d="M155.602 25.3659C155.249 25.9246 154.758 26.3823 154.176 26.6942C153.594 27.0061 152.941 27.1615 152.28 27.1453C151.756 27.1647 151.233 27.0758 150.744 26.8839C150.256 26.6921 149.812 26.4014 149.441 26.0303C149.07 25.6592 148.78 25.2155 148.588 24.727C148.396 24.2385 148.307 23.7156 148.326 23.1911C148.305 22.6663 148.393 22.1427 148.584 21.6535C148.776 21.1643 149.066 20.72 149.438 20.3486C149.809 19.9771 150.254 19.6868 150.743 19.4954C151.232 19.3041 151.755 19.2161 152.28 19.2369C152.936 19.2202 153.585 19.3724 154.165 19.6788C154.745 19.9853 155.236 20.4356 155.592 20.9867L159.002 19.5731C158.348 18.3648 157.376 17.3579 156.191 16.6611C155.007 15.9643 153.655 15.6041 152.28 15.619C151.281 15.6058 150.29 15.7921 149.363 16.1668C148.437 16.5416 147.595 17.0972 146.886 17.8014C146.178 18.5056 145.616 19.3442 145.236 20.268C144.855 21.1917 144.662 22.1821 144.668 23.1812C144.663 24.1795 144.857 25.169 145.238 26.0916C145.62 27.0142 146.181 27.8513 146.89 28.5545C147.598 29.2576 148.44 29.8125 149.366 30.1867C150.291 30.5608 151.282 30.747 152.28 30.7338C153.656 30.7516 155.011 30.3923 156.198 29.6953C157.384 28.9983 158.358 27.9902 159.012 26.7796L155.602 25.3659Z" fill="#333333"/>
    <path fill-rule="evenodd" clip-rule="evenodd" d="M175.215 23.2109C175.208 22.2126 175.4 21.2229 175.78 20.2998C176.161 19.3767 176.721 18.5388 177.429 17.8347C178.136 17.1307 178.977 16.5748 179.902 16.1994C180.828 15.8241 181.818 15.6368 182.816 15.6487C183.816 15.6355 184.807 15.8218 185.733 16.1965C186.66 16.5713 187.502 17.1269 188.21 17.8311C188.919 18.5353 189.48 19.3739 189.861 20.2977C190.242 21.2214 190.435 22.2118 190.428 23.2109C190.435 24.21 190.242 25.2004 189.861 26.1242C189.48 27.0479 188.919 27.8865 188.21 28.5907C187.502 29.2949 186.66 29.8505 185.733 30.2253C184.807 30.6001 183.816 30.7863 182.816 30.7732C181.818 30.785 180.828 30.5978 179.902 30.2224C178.977 29.8471 178.136 29.2911 177.429 28.5871C176.721 27.883 176.161 27.0451 175.78 26.122C175.4 25.1989 175.208 24.2092 175.215 23.2109ZM186.741 23.2109C186.762 22.6861 186.674 22.1625 186.482 21.6733C186.291 21.1841 186.001 20.7398 185.629 20.3684C185.258 19.9969 184.814 19.7065 184.324 19.5152C183.835 19.3239 183.311 19.2359 182.787 19.2567C182.262 19.2359 181.738 19.3239 181.249 19.5152C180.76 19.7065 180.315 19.9969 179.944 20.3684C179.573 20.7398 179.282 21.1841 179.091 21.6733C178.9 22.1625 178.811 22.6861 178.832 23.2109C178.811 23.7358 178.9 24.2593 179.091 24.7485C179.282 25.2377 179.573 25.682 179.944 26.0535C180.315 26.4249 180.76 26.7153 181.249 26.9066C181.738 27.0979 182.262 27.186 182.787 27.1651C183.311 27.186 183.835 27.0979 184.324 26.9066C184.814 26.7153 185.258 26.4249 185.629 26.0535C186.001 25.682 186.291 25.2377 186.482 24.7485C186.674 24.2593 186.762 23.7358 186.741 23.2109Z" fill="#333333"/>
    <path d="M174.532 15.965H170.825V30.4669H174.532V15.965Z" fill="#333333"/>
    <path fill-rule="evenodd" clip-rule="evenodd" d="M202.597 15.965V30.457H199.74L195.035 22.9638V30.457H191.328V15.965H194.204L198.91 23.4581V15.965H202.597Z" fill="#333333"/>
    <path fill-rule="evenodd" clip-rule="evenodd" d="M212.522 29.7551V30.457H204.703V15.965H205.474V29.7551H212.522Z" fill="#333333"/>
    <path fill-rule="evenodd" clip-rule="evenodd" d="M236.138 25.6725C236.157 26.2883 236.052 26.9016 235.83 27.4763C235.609 28.0511 235.274 28.5756 234.847 29.0195C234.42 29.4633 233.908 29.8174 233.342 30.0609C232.776 30.3043 232.167 30.4324 231.551 30.4374H224.73V15.9452H230.266C230.709 15.9197 231.152 15.9847 231.569 16.1358C231.986 16.287 232.368 16.5211 232.691 16.8244C233.015 17.1276 233.274 17.4936 233.452 17.8998C233.629 18.3061 233.723 18.7442 233.726 19.1876C233.727 19.9012 233.495 20.5955 233.064 21.1647C233.986 21.4958 234.781 22.1101 235.333 22.9198C235.885 23.7294 236.167 24.6929 236.138 25.6725ZM225.501 16.6472V20.9077H231.571C231.828 20.9077 232.056 20.9077 232.263 20.9077C232.717 20.4347 232.969 19.8035 232.965 19.148C232.966 18.8007 232.895 18.457 232.758 18.138C232.62 17.819 232.419 17.5314 232.166 17.2933C231.913 17.0552 231.614 16.8716 231.287 16.7537C230.961 16.6357 230.613 16.586 230.266 16.6077L225.501 16.6472ZM235.387 25.6725C235.411 25.1489 235.328 24.6258 235.144 24.1349C234.961 23.644 234.679 23.1956 234.317 22.8167C233.954 22.4378 233.519 22.1363 233.037 21.9305C232.555 21.7247 232.036 21.6188 231.512 21.6194H225.501V29.7355H231.492C232.015 29.7279 232.532 29.6163 233.012 29.4073C233.492 29.1983 233.926 28.8959 234.289 28.518C234.651 28.14 234.935 27.694 235.123 27.2055C235.312 26.7171 235.401 26.1959 235.387 25.6725Z" fill="#333333"/>
    <path fill-rule="evenodd" clip-rule="evenodd" d="M235.288 26.661H236.039C236.039 28.6381 237.631 29.9727 240.27 29.9727C242.524 29.9727 243.997 28.7074 243.997 27.0071C243.997 24.9311 242.129 24.2688 240.201 23.5472C238.006 22.7366 235.664 22.0543 235.664 19.405C235.664 17.2698 237.532 15.7771 239.954 15.7771C242.376 15.7771 244.313 17.3095 244.313 19.593H243.542C243.542 17.8532 242.069 16.5086 239.954 16.5086C237.838 16.5086 236.435 17.8134 236.435 19.405C236.435 21.4711 238.313 22.0938 240.31 22.8451C242.465 23.6755 244.748 24.4171 244.748 27.0071C244.748 29.2807 242.772 30.7339 240.27 30.7339C237.404 30.7339 235.328 29.2411 235.328 26.7006" fill="#333333"/>
    <path fill-rule="evenodd" clip-rule="evenodd" d="M169.501 19.5435H166.337V30.457H162.64V19.5435H159.467V15.965H169.501V19.5435Z" fill="#333333"/>
    <path d="M221.745 26.661H214.143L212.65 30.4867H211.85L217.524 15.9946H218.354L224.048 30.4867H223.228L221.745 26.661ZM221.478 25.9493L217.939 16.8745L214.41 25.9493H221.478Z" fill="#333333"/>
  </g>
</svg>
